<svg xmlns="http://www.w3.org/2000/svg" xmlns:xlink="http://www.w3.org/1999/xlink" width="200" zoomAndPan="magnify" viewBox="0 0 150 74.999997" height="100" preserveAspectRatio="xMidYMid meet" version="1.0"><defs><g/></defs><rect x="-15" width="180" fill="#ffffff" y="-7.5" height="89.999996" fill-opacity="1"/><rect x="-15" width="180" fill="#181818" y="-7.5" height="89.999996" fill-opacity="1"/><g fill="#ffffff" fill-opacity="1"><g transform="translate(38.704427, 39.96669)"><g><path d="M 8.265625 -3.390625 C 8.265625 -2.921875 8.191406 -2.476562 8.046875 -2.0625 C 7.910156 -1.644531 7.703125 -1.28125 7.421875 -0.96875 C 7.140625 -0.664062 6.785156 -0.425781 6.359375 -0.25 C 5.929688 -0.0820312 5.429688 0 4.859375 0 L 0.609375 0 L 0.609375 -6.796875 L 4.859375 -6.796875 C 5.429688 -6.796875 5.929688 -6.707031 6.359375 -6.53125 C 6.785156 -6.351562 7.140625 -6.109375 7.421875 -5.796875 C 7.703125 -5.492188 7.910156 -5.132812 8.046875 -4.71875 C 8.191406 -4.3125 8.265625 -3.867188 8.265625 -3.390625 Z M 2.1875 -5.421875 L 2.1875 -1.375 L 4.859375 -1.375 C 5.191406 -1.375 5.46875 -1.425781 5.6875 -1.53125 C 5.914062 -1.644531 6.097656 -1.796875 6.234375 -1.984375 C 6.378906 -2.179688 6.484375 -2.398438 6.546875 -2.640625 C 6.609375 -2.878906 6.640625 -3.128906 6.640625 -3.390625 C 6.640625 -3.660156 6.609375 -3.914062 6.546875 -4.15625 C 6.484375 -4.394531 6.378906 -4.609375 6.234375 -4.796875 C 6.097656 -4.992188 5.914062 -5.144531 5.6875 -5.25 C 5.46875 -5.363281 5.191406 -5.421875 4.859375 -5.421875 Z M 2.1875 -5.421875 "/></g></g></g><g fill="#ffffff" fill-opacity="1"><g transform="translate(46.915036, 39.96669)"><g><path d="M 7.171875 0 L 6.453125 -1.328125 L 2.59375 -1.328125 L 1.875 0 L 0.1875 0 L 3.875 -6.796875 L 5.171875 -6.796875 L 8.84375 0 Z M 4.515625 -4.90625 L 3.3125 -2.65625 L 5.734375 -2.65625 Z M 4.515625 -4.90625 "/></g></g></g><g fill="#ffffff" fill-opacity="1"><g transform="translate(55.954861, 39.96669)"><g><path d="M 2.1875 0 L 0.609375 0 L 0.609375 -6.796875 L 5.078125 -6.796875 C 5.535156 -6.796875 5.929688 -6.734375 6.265625 -6.609375 C 6.609375 -6.484375 6.890625 -6.3125 7.109375 -6.09375 C 7.328125 -5.875 7.488281 -5.628906 7.59375 -5.359375 C 7.695312 -5.085938 7.75 -4.800781 7.75 -4.5 C 7.75 -3.988281 7.625 -3.570312 7.375 -3.25 C 7.132812 -2.925781 6.789062 -2.691406 6.34375 -2.546875 L 7.8125 0 L 6.0625 0 L 4.703125 -2.34375 L 2.1875 -2.34375 Z M 5.078125 -5.421875 L 2.1875 -5.421875 L 2.1875 -3.5625 L 5.078125 -3.5625 C 5.347656 -3.5625 5.5625 -3.601562 5.71875 -3.6875 C 5.875 -3.78125 5.984375 -3.894531 6.046875 -4.03125 C 6.117188 -4.175781 6.15625 -4.332031 6.15625 -4.5 C 6.15625 -4.664062 6.117188 -4.816406 6.046875 -4.953125 C 5.984375 -5.097656 5.875 -5.210938 5.71875 -5.296875 C 5.5625 -5.378906 5.347656 -5.421875 5.078125 -5.421875 Z M 5.078125 -5.421875 "/></g></g></g><g fill="#ffffff" fill-opacity="1"><g transform="translate(64.198726, 39.96669)"><g><path d="M 2.1875 -3.859375 L 5.75 -6.796875 L 7.828125 -6.796875 L 4.3125 -3.90625 L 7.828125 0 L 5.875 0 L 3.203125 -2.96875 L 2.1875 -2.140625 L 2.1875 0 L 0.609375 0 L 0.609375 -6.796875 L 2.1875 -6.796875 Z M 2.1875 -3.859375 "/></g></g></g><g fill="#ffffff" fill-opacity="1"><g transform="translate(72.210437, 39.96669)"><g/></g></g><g fill="#7ed957" fill-opacity="1"><g transform="translate(74.927081, 39.96669)"><g><path d="M 2.640625 -6.796875 L 4.984375 -2.109375 L 7.3125 -6.796875 L 9.34375 -6.796875 L 9.34375 0 L 7.765625 0 L 7.765625 -4.359375 L 5.59375 0 L 4.375 0 L 2.1875 -4.359375 L 2.1875 0 L 0.609375 0 L 0.609375 -6.796875 Z M 2.640625 -6.796875 "/></g></g></g><g fill="#7ed957" fill-opacity="1"><g transform="translate(84.886049, 39.96669)"><g><path d="M 4.953125 0.1875 C 4.335938 0.1875 3.785156 0.125 3.296875 0 C 2.816406 -0.125 2.394531 -0.296875 2.03125 -0.515625 C 1.675781 -0.734375 1.378906 -0.992188 1.140625 -1.296875 C 0.898438 -1.597656 0.71875 -1.925781 0.59375 -2.28125 C 0.476562 -2.632812 0.421875 -3.003906 0.421875 -3.390625 C 0.421875 -3.785156 0.476562 -4.160156 0.59375 -4.515625 C 0.71875 -4.867188 0.898438 -5.195312 1.140625 -5.5 C 1.378906 -5.800781 1.675781 -6.0625 2.03125 -6.28125 C 2.394531 -6.5 2.816406 -6.671875 3.296875 -6.796875 C 3.785156 -6.921875 4.335938 -6.984375 4.953125 -6.984375 C 5.566406 -6.984375 6.117188 -6.921875 6.609375 -6.796875 C 7.097656 -6.671875 7.519531 -6.5 7.875 -6.28125 C 8.238281 -6.0625 8.539062 -5.800781 8.78125 -5.5 C 9.019531 -5.195312 9.195312 -4.867188 9.3125 -4.515625 C 9.425781 -4.160156 9.484375 -3.785156 9.484375 -3.390625 C 9.484375 -3.003906 9.425781 -2.632812 9.3125 -2.28125 C 9.195312 -1.925781 9.019531 -1.597656 8.78125 -1.296875 C 8.539062 -0.992188 8.238281 -0.734375 7.875 -0.515625 C 7.519531 -0.296875 7.097656 -0.125 6.609375 0 C 6.117188 0.125 5.566406 0.1875 4.953125 0.1875 Z M 4.953125 -1.1875 C 5.472656 -1.1875 5.914062 -1.242188 6.28125 -1.359375 C 6.65625 -1.484375 6.957031 -1.648438 7.1875 -1.859375 C 7.414062 -2.066406 7.582031 -2.300781 7.6875 -2.5625 C 7.800781 -2.832031 7.859375 -3.109375 7.859375 -3.390625 C 7.859375 -3.679688 7.800781 -3.957031 7.6875 -4.21875 C 7.582031 -4.488281 7.414062 -4.726562 7.1875 -4.9375 C 6.957031 -5.144531 6.65625 -5.304688 6.28125 -5.421875 C 5.914062 -5.546875 5.472656 -5.609375 4.953125 -5.609375 C 4.429688 -5.609375 3.984375 -5.546875 3.609375 -5.421875 C 3.242188 -5.304688 2.945312 -5.144531 2.71875 -4.9375 C 2.488281 -4.726562 2.316406 -4.488281 2.203125 -4.21875 C 2.097656 -3.957031 2.046875 -3.679688 2.046875 -3.390625 C 2.046875 -3.109375 2.097656 -2.832031 2.203125 -2.5625 C 2.316406 -2.300781 2.488281 -2.066406 2.71875 -1.859375 C 2.945312 -1.648438 3.242188 -1.484375 3.609375 -1.359375 C 3.984375 -1.242188 4.429688 -1.1875 4.953125 -1.1875 Z M 4.953125 -1.1875 "/></g></g></g><g fill="#7ed957" fill-opacity="1"><g transform="translate(94.797639, 39.96669)"><g><path d="M 8.265625 -3.390625 C 8.265625 -2.921875 8.191406 -2.476562 8.046875 -2.0625 C 7.910156 -1.644531 7.703125 -1.28125 7.421875 -0.96875 C 7.140625 -0.664062 6.785156 -0.425781 6.359375 -0.25 C 5.929688 -0.0820312 5.429688 0 4.859375 0 L 0.609375 0 L 0.609375 -6.796875 L 4.859375 -6.796875 C 5.429688 -6.796875 5.929688 -6.707031 6.359375 -6.53125 C 6.785156 -6.351562 7.140625 -6.109375 7.421875 -5.796875 C 7.703125 -5.492188 7.910156 -5.132812 8.046875 -4.71875 C 8.191406 -4.3125 8.265625 -3.867188 8.265625 -3.390625 Z M 2.1875 -5.421875 L 2.1875 -1.375 L 4.859375 -1.375 C 5.191406 -1.375 5.46875 -1.425781 5.6875 -1.53125 C 5.914062 -1.644531 6.097656 -1.796875 6.234375 -1.984375 C 6.378906 -2.179688 6.484375 -2.398438 6.546875 -2.640625 C 6.609375 -2.878906 6.640625 -3.128906 6.640625 -3.390625 C 6.640625 -3.660156 6.609375 -3.914062 6.546875 -4.15625 C 6.484375 -4.394531 6.378906 -4.609375 6.234375 -4.796875 C 6.097656 -4.992188 5.914062 -5.144531 5.6875 -5.25 C 5.46875 -5.363281 5.191406 -5.421875 4.859375 -5.421875 Z M 2.1875 -5.421875 "/></g></g></g><g fill="#7ed957" fill-opacity="1"><g transform="translate(103.482124, 39.96669)"><g><path d="M 2.1875 -4.09375 L 7.03125 -4.09375 L 7.03125 -2.765625 L 2.1875 -2.765625 L 2.1875 -1.375 L 7.28125 -1.375 L 7.28125 0 L 0.609375 0 L 0.609375 -6.796875 L 7.234375 -6.796875 L 7.234375 -5.421875 L 2.1875 -5.421875 Z M 2.1875 -4.09375 "/></g></g></g></svg>