<svg xmlns="http://www.w3.org/2000/svg" xmlns:xlink="http://www.w3.org/1999/xlink" width="200" zoomAndPan="magnify" viewBox="0 0 150 74.999997" height="100" preserveAspectRatio="xMidYMid meet" version="1.0"><defs><g/></defs><g fill="#181818" fill-opacity="1"><g transform="translate(43.240888, 39.96669)"><g><path d="M 4.25 0.1875 C 3.582031 0.1875 3.015625 0.113281 2.546875 -0.03125 C 2.085938 -0.1875 1.710938 -0.40625 1.421875 -0.6875 C 1.140625 -0.976562 0.929688 -1.328125 0.796875 -1.734375 C 0.671875 -2.140625 0.609375 -2.585938 0.609375 -3.078125 L 0.609375 -6.796875 L 2.1875 -6.796875 L 2.1875 -3.078125 C 2.1875 -2.773438 2.21875 -2.503906 2.28125 -2.265625 C 2.351562 -2.035156 2.460938 -1.835938 2.609375 -1.671875 C 2.765625 -1.515625 2.972656 -1.394531 3.234375 -1.3125 C 3.503906 -1.226562 3.84375 -1.1875 4.25 -1.1875 C 4.65625 -1.1875 4.988281 -1.226562 5.25 -1.3125 C 5.519531 -1.394531 5.734375 -1.515625 5.890625 -1.671875 C 6.046875 -1.835938 6.15625 -2.035156 6.21875 -2.265625 C 6.28125 -2.503906 6.3125 -2.773438 6.3125 -3.078125 L 6.3125 -6.796875 L 7.890625 -6.796875 L 7.890625 -3.078125 C 7.890625 -2.585938 7.828125 -2.140625 7.703125 -1.734375 C 7.578125 -1.328125 7.367188 -0.976562 7.078125 -0.6875 C 6.796875 -0.40625 6.421875 -0.1875 5.953125 -0.03125 C 5.492188 0.113281 4.925781 0.1875 4.25 0.1875 Z M 3.515625 -7.28125 L 5 -8.75 L 6.625 -8.75 L 4.84375 -7.28125 Z M 3.515625 -7.28125 "/></g></g></g><g fill="#181818" fill-opacity="1"><g transform="translate(51.750073, 39.96669)"><g><path d="M 0.515625 -4.875 L 2.078125 -4.875 L 2.078125 -4.21875 C 2.171875 -4.363281 2.289062 -4.492188 2.4375 -4.609375 C 2.59375 -4.734375 2.785156 -4.832031 3.015625 -4.90625 C 3.242188 -4.976562 3.523438 -5.015625 3.859375 -5.015625 C 4.347656 -5.015625 4.765625 -4.945312 5.109375 -4.8125 C 5.460938 -4.6875 5.742188 -4.503906 5.953125 -4.265625 C 6.171875 -4.023438 6.328125 -3.738281 6.421875 -3.40625 C 6.515625 -3.082031 6.5625 -2.726562 6.5625 -2.34375 L 6.5625 0 L 5.015625 0 L 5.015625 -2.34375 C 5.015625 -2.539062 4.988281 -2.726562 4.9375 -2.90625 C 4.894531 -3.082031 4.816406 -3.238281 4.703125 -3.375 C 4.585938 -3.519531 4.4375 -3.628906 4.25 -3.703125 C 4.0625 -3.785156 3.828125 -3.828125 3.546875 -3.828125 C 3.265625 -3.828125 3.023438 -3.785156 2.828125 -3.703125 C 2.640625 -3.628906 2.488281 -3.519531 2.375 -3.375 C 2.269531 -3.238281 2.191406 -3.082031 2.140625 -2.90625 C 2.097656 -2.726562 2.078125 -2.539062 2.078125 -2.34375 L 2.078125 0 L 0.515625 0 Z M 0.515625 -4.875 "/></g></g></g><g fill="#181818" fill-opacity="1"><g transform="translate(58.837902, 39.96669)"><g><path d="M 5.546875 -1.40625 L 6.25 -0.484375 C 6.25 -0.484375 6.195312 -0.445312 6.09375 -0.375 C 5.988281 -0.3125 5.828125 -0.238281 5.609375 -0.15625 C 5.390625 -0.0820312 5.113281 -0.015625 4.78125 0.046875 C 4.445312 0.109375 4.050781 0.140625 3.59375 0.140625 C 3.101562 0.140625 2.671875 0.09375 2.296875 0 C 1.929688 -0.0820312 1.625 -0.207031 1.375 -0.375 C 1.125 -0.539062 0.921875 -0.734375 0.765625 -0.953125 C 0.617188 -1.171875 0.507812 -1.40625 0.4375 -1.65625 C 0.363281 -1.90625 0.328125 -2.164062 0.328125 -2.4375 C 0.328125 -2.789062 0.390625 -3.117188 0.515625 -3.421875 C 0.640625 -3.734375 0.832031 -4.007812 1.09375 -4.25 C 1.351562 -4.488281 1.679688 -4.675781 2.078125 -4.8125 C 2.484375 -4.945312 2.957031 -5.015625 3.5 -5.015625 C 4.21875 -5.015625 4.804688 -4.890625 5.265625 -4.640625 C 5.734375 -4.390625 6.078125 -4.03125 6.296875 -3.5625 C 6.523438 -3.09375 6.617188 -2.523438 6.578125 -1.859375 L 1.953125 -1.859375 C 1.953125 -1.796875 1.972656 -1.710938 2.015625 -1.609375 C 2.054688 -1.515625 2.132812 -1.421875 2.25 -1.328125 C 2.375 -1.234375 2.546875 -1.15625 2.765625 -1.09375 C 2.984375 -1.03125 3.257812 -1 3.59375 -1 C 3.875 -1 4.132812 -1.019531 4.375 -1.0625 C 4.613281 -1.101562 4.820312 -1.148438 5 -1.203125 C 5.175781 -1.253906 5.3125 -1.300781 5.40625 -1.34375 C 5.5 -1.382812 5.546875 -1.40625 5.546875 -1.40625 Z M 1.953125 -2.875 L 5.0625 -2.875 C 5.0625 -2.945312 5.035156 -3.035156 4.984375 -3.140625 C 4.929688 -3.253906 4.847656 -3.363281 4.734375 -3.46875 C 4.617188 -3.582031 4.460938 -3.675781 4.265625 -3.75 C 4.066406 -3.832031 3.8125 -3.875 3.5 -3.875 C 3.195312 -3.875 2.941406 -3.832031 2.734375 -3.75 C 2.535156 -3.675781 2.378906 -3.582031 2.265625 -3.46875 C 2.148438 -3.363281 2.066406 -3.253906 2.015625 -3.140625 C 1.972656 -3.035156 1.953125 -2.945312 1.953125 -2.875 Z M 1.953125 -2.875 "/></g></g></g><g fill="#181818" fill-opacity="1"><g transform="translate(65.485053, 39.96669)"><g><path d="M 0.234375 -3.6875 L 0.234375 -4.875 L 1.484375 -4.875 L 1.484375 -6.296875 L 3.046875 -6.296875 L 3.046875 -4.875 L 4.984375 -4.875 L 4.984375 -3.6875 L 3.046875 -3.6875 L 3.046875 -2.125 C 3.046875 -1.84375 3.070312 -1.625 3.125 -1.46875 C 3.175781 -1.3125 3.257812 -1.203125 3.375 -1.140625 C 3.488281 -1.078125 3.644531 -1.046875 3.84375 -1.046875 C 4.019531 -1.046875 4.175781 -1.0625 4.3125 -1.09375 C 4.445312 -1.125 4.550781 -1.148438 4.625 -1.171875 C 4.707031 -1.203125 4.75 -1.21875 4.75 -1.21875 L 5.1875 -0.171875 C 5.1875 -0.171875 5.15625 -0.15625 5.09375 -0.125 C 5.039062 -0.09375 4.953125 -0.0546875 4.828125 -0.015625 C 4.703125 0.0234375 4.539062 0.0625 4.34375 0.09375 C 4.15625 0.125 3.925781 0.140625 3.65625 0.140625 C 3.226562 0.140625 2.875 0.09375 2.59375 0 C 2.3125 -0.101562 2.085938 -0.253906 1.921875 -0.453125 C 1.765625 -0.648438 1.648438 -0.882812 1.578125 -1.15625 C 1.515625 -1.4375 1.484375 -1.757812 1.484375 -2.125 L 1.484375 -3.6875 Z M 0.234375 -3.6875 "/></g></g></g><g fill="#181818" fill-opacity="1"><g transform="translate(70.905158, 39.96669)"><g><path d="M 5.546875 -1.40625 L 6.25 -0.484375 C 6.25 -0.484375 6.195312 -0.445312 6.09375 -0.375 C 5.988281 -0.3125 5.828125 -0.238281 5.609375 -0.15625 C 5.390625 -0.0820312 5.113281 -0.015625 4.78125 0.046875 C 4.445312 0.109375 4.050781 0.140625 3.59375 0.140625 C 3.101562 0.140625 2.671875 0.09375 2.296875 0 C 1.929688 -0.0820312 1.625 -0.207031 1.375 -0.375 C 1.125 -0.539062 0.921875 -0.734375 0.765625 -0.953125 C 0.617188 -1.171875 0.507812 -1.40625 0.4375 -1.65625 C 0.363281 -1.90625 0.328125 -2.164062 0.328125 -2.4375 C 0.328125 -2.789062 0.390625 -3.117188 0.515625 -3.421875 C 0.640625 -3.734375 0.832031 -4.007812 1.09375 -4.25 C 1.351562 -4.488281 1.679688 -4.675781 2.078125 -4.8125 C 2.484375 -4.945312 2.957031 -5.015625 3.5 -5.015625 C 4.21875 -5.015625 4.804688 -4.890625 5.265625 -4.640625 C 5.734375 -4.390625 6.078125 -4.03125 6.296875 -3.5625 C 6.523438 -3.09375 6.617188 -2.523438 6.578125 -1.859375 L 1.953125 -1.859375 C 1.953125 -1.796875 1.972656 -1.710938 2.015625 -1.609375 C 2.054688 -1.515625 2.132812 -1.421875 2.25 -1.328125 C 2.375 -1.234375 2.546875 -1.15625 2.765625 -1.09375 C 2.984375 -1.03125 3.257812 -1 3.59375 -1 C 3.875 -1 4.132812 -1.019531 4.375 -1.0625 C 4.613281 -1.101562 4.820312 -1.148438 5 -1.203125 C 5.175781 -1.253906 5.3125 -1.300781 5.40625 -1.34375 C 5.5 -1.382812 5.546875 -1.40625 5.546875 -1.40625 Z M 1.953125 -2.875 L 5.0625 -2.875 C 5.0625 -2.945312 5.035156 -3.035156 4.984375 -3.140625 C 4.929688 -3.253906 4.847656 -3.363281 4.734375 -3.46875 C 4.617188 -3.582031 4.460938 -3.675781 4.265625 -3.75 C 4.066406 -3.832031 3.8125 -3.875 3.5 -3.875 C 3.195312 -3.875 2.941406 -3.832031 2.734375 -3.75 C 2.535156 -3.675781 2.378906 -3.582031 2.265625 -3.46875 C 2.148438 -3.363281 2.066406 -3.253906 2.015625 -3.140625 C 1.972656 -3.035156 1.953125 -2.945312 1.953125 -2.875 Z M 1.953125 -2.875 "/></g></g></g><g fill="#ffffff" fill-opacity="1"><g transform="translate(77.834635, 39.96669)"><g/></g></g><g fill="#7ed957" fill-opacity="1"><g transform="translate(80.553385, 39.96669)"><g><path d="M 7.171875 0 L 6.453125 -1.328125 L 2.59375 -1.328125 L 1.875 0 L 0.1875 0 L 3.875 -6.796875 L 5.171875 -6.796875 L 8.84375 0 Z M 4.515625 -4.90625 L 3.3125 -2.65625 L 5.734375 -2.65625 Z M 4.515625 -4.90625 "/></g></g></g><g fill="#7ed957" fill-opacity="1"><g transform="translate(89.313619, 39.96669)"><g><path d="M 0.328125 -2.4375 C 0.328125 -2.976562 0.445312 -3.441406 0.6875 -3.828125 C 0.925781 -4.210938 1.269531 -4.503906 1.71875 -4.703125 C 2.164062 -4.910156 2.691406 -5.015625 3.296875 -5.015625 C 3.671875 -5.015625 3.988281 -4.972656 4.25 -4.890625 C 4.519531 -4.804688 4.742188 -4.691406 4.921875 -4.546875 C 5.109375 -4.398438 5.257812 -4.25 5.375 -4.09375 L 5.375 -4.875 L 6.921875 -4.875 L 6.921875 2.515625 L 5.375 2.515625 L 5.375 -0.78125 C 5.257812 -0.625 5.109375 -0.472656 4.921875 -0.328125 C 4.742188 -0.191406 4.519531 -0.0820312 4.25 0 C 3.988281 0.09375 3.671875 0.140625 3.296875 0.140625 C 2.691406 0.140625 2.164062 0.0390625 1.71875 -0.15625 C 1.269531 -0.363281 0.925781 -0.660156 0.6875 -1.046875 C 0.445312 -1.429688 0.328125 -1.894531 0.328125 -2.4375 Z M 1.890625 -2.4375 C 1.890625 -2.175781 1.945312 -1.9375 2.0625 -1.71875 C 2.175781 -1.507812 2.363281 -1.34375 2.625 -1.21875 C 2.882812 -1.101562 3.21875 -1.046875 3.625 -1.046875 C 4.039062 -1.046875 4.375 -1.101562 4.625 -1.21875 C 4.882812 -1.34375 5.070312 -1.507812 5.1875 -1.71875 C 5.3125 -1.9375 5.375 -2.175781 5.375 -2.4375 C 5.375 -2.707031 5.3125 -2.945312 5.1875 -3.15625 C 5.070312 -3.363281 4.882812 -3.523438 4.625 -3.640625 C 4.375 -3.765625 4.039062 -3.828125 3.625 -3.828125 C 3.21875 -3.828125 2.882812 -3.765625 2.625 -3.640625 C 2.363281 -3.523438 2.175781 -3.363281 2.0625 -3.15625 C 1.945312 -2.945312 1.890625 -2.707031 1.890625 -2.4375 Z M 1.890625 -2.4375 "/></g></g></g><g fill="#7ed957" fill-opacity="1"><g transform="translate(96.761525, 39.96669)"><g><path d="M 6.5625 0 L 5.015625 0 L 5.015625 -0.65625 C 4.921875 -0.519531 4.796875 -0.390625 4.640625 -0.265625 C 4.484375 -0.140625 4.289062 -0.0390625 4.0625 0.03125 C 3.832031 0.101562 3.554688 0.140625 3.234375 0.140625 C 2.734375 0.140625 2.3125 0.078125 1.96875 -0.046875 C 1.625 -0.179688 1.34375 -0.367188 1.125 -0.609375 C 0.914062 -0.859375 0.757812 -1.144531 0.65625 -1.46875 C 0.5625 -1.789062 0.515625 -2.148438 0.515625 -2.546875 L 0.515625 -4.875 L 2.078125 -4.875 L 2.078125 -2.546875 C 2.078125 -2.335938 2.097656 -2.144531 2.140625 -1.96875 C 2.191406 -1.789062 2.269531 -1.628906 2.375 -1.484375 C 2.488281 -1.347656 2.640625 -1.238281 2.828125 -1.15625 C 3.023438 -1.082031 3.265625 -1.046875 3.546875 -1.046875 C 3.828125 -1.046875 4.0625 -1.082031 4.25 -1.15625 C 4.4375 -1.238281 4.585938 -1.347656 4.703125 -1.484375 C 4.816406 -1.628906 4.894531 -1.789062 4.9375 -1.96875 C 4.988281 -2.144531 5.015625 -2.335938 5.015625 -2.546875 L 5.015625 -4.875 L 6.5625 -4.875 Z M 6.5625 0 "/></g></g></g><g fill="#7ed957" fill-opacity="1"><g transform="translate(103.849354, 39.96669)"><g><path d="M 0.515625 0 L 0.515625 -4.875 L 2.078125 -4.875 L 2.078125 0 Z M 0.609375 -5.328125 L 2.078125 -6.796875 L 3.703125 -6.796875 L 1.9375 -5.328125 Z M 0.609375 -5.328125 "/></g></g></g></svg>