<svg xmlns="http://www.w3.org/2000/svg" xmlns:xlink="http://www.w3.org/1999/xlink" width="500" zoomAndPan="magnify" viewBox="0 0 375 374.999991" height="500" preserveAspectRatio="xMidYMid meet" version="1.0"><defs><clipPath id="edb1cb393a"><path d="M 17 16.902344 L 358 16.902344 L 358 358.152344 L 17 358.152344 Z M 17 16.902344 " clip-rule="nonzero"/></clipPath></defs><g clip-path="url(#edb1cb393a)"><path fill="#00bf63" d="M 233.882812 130.066406 L 223.730469 181.609375 C 218.140625 211.347656 191.632812 244.574219 164.527344 244.574219 C 145.375 244.574219 133.945312 232.058594 133.945312 211.085938 C 133.945312 165.800781 169.675781 127.539062 211.96875 127.539062 C 219.671875 127.539062 227.03125 128.390625 233.882812 130.066406 Z M 346.957031 102.269531 C 339.8125 85.074219 329.394531 69.898438 316.003906 57.167969 C 302.523438 44.351562 286.402344 34.382812 268.085938 27.535156 C 249.230469 20.484375 228.460938 16.90625 206.355469 16.90625 C 178.480469 16.90625 152.210938 22.011719 128.28125 32.085938 C 105.550781 41.65625 85.453125 55.449219 68.550781 73.09375 C 35.347656 107.753906 17.058594 154.539062 17.058594 204.828125 C 17.058594 227.671875 21.308594 249.097656 29.699219 268.507812 C 37.679688 286.96875 49.207031 303.234375 63.96875 316.847656 C 92.8125 343.445312 132.148438 358.09375 174.730469 358.09375 C 211.265625 358.09375 239.695312 352.058594 266.917969 338.523438 L 269.457031 337.253906 L 268.414062 334.617188 L 260.253906 313.921875 L 258.984375 310.703125 C 258.984375 310.703125 209.410156 328.808594 180.335938 328.808594 C 103.765625 328.808594 52.324219 277.828125 52.324219 201.941406 C 52.324219 111.140625 115.386719 45.234375 202.277344 45.234375 C 276.519531 45.234375 322.640625 89.972656 322.640625 161.992188 C 322.640625 214.492188 295.9375 246.992188 271.203125 246.992188 C 271.035156 246.992188 270.863281 246.988281 270.695312 246.988281 C 265.9375 246.847656 262.390625 245.234375 259.878906 242.050781 C 255.914062 237.03125 252.4375 225.105469 258.359375 196.796875 L 275.710938 109.652344 L 276.195312 107.207031 L 273.914062 106.210938 C 258.785156 99.625 238.441406 95.84375 218.089844 95.84375 C 183.8125 95.84375 152.128906 108.46875 128.875 131.390625 C 117.886719 142.226562 109.269531 154.804688 103.261719 168.789062 C 97.179688 182.957031 94.089844 197.835938 94.089844 213.015625 C 94.089844 231.878906 100.082031 248.039062 111.414062 259.746094 C 122.03125 270.710938 136.542969 276.75 152.28125 276.75 C 181.886719 276.75 205.148438 264.195312 223.199219 238.421875 C 223.898438 249.109375 227.507812 258.121094 233.8125 264.761719 C 241.15625 272.492188 251.878906 276.75 264.003906 276.75 C 289.210938 276.75 312.558594 265.636719 329.746094 245.460938 C 348.167969 223.835938 357.902344 193.972656 357.902344 159.105469 C 357.902344 138.882812 354.222656 119.761719 346.957031 102.269531 " fill-opacity="1" fill-rule="nonzero"/></g></svg>