<svg xmlns="http://www.w3.org/2000/svg" xmlns:xlink="http://www.w3.org/1999/xlink" width="500" zoomAndPan="magnify" viewBox="0 0 375 374.999991" height="500" preserveAspectRatio="xMidYMid meet" version="1.0"><path fill="#00bf63" d="M 192.039062 0.339844 C 88.175781 0.691406 5.164062 85.140625 6.523438 188.996094 C 6.585938 194.214844 6.867188 199.421875 7.367188 204.613281 C 7.867188 209.808594 8.585938 214.972656 9.523438 220.105469 C 10.460938 225.238281 11.613281 230.324219 12.980469 235.359375 C 14.347656 240.394531 15.921875 245.363281 17.707031 250.269531 C 19.496094 255.171875 21.484375 259.988281 23.679688 264.726562 C 25.871094 269.460938 28.261719 274.09375 30.84375 278.628906 C 33.429688 283.160156 36.199219 287.578125 39.15625 291.875 C 42.113281 296.175781 45.25 300.339844 48.558594 304.375 C 49.078125 305.011719 49.546875 305.683594 49.964844 306.390625 C 50.386719 307.101562 50.75 307.835938 51.058594 308.597656 C 51.371094 309.359375 51.621094 310.136719 51.8125 310.9375 C 52.007812 311.738281 52.136719 312.546875 52.210938 313.367188 C 52.28125 314.183594 52.292969 315.003906 52.242188 315.824219 C 52.191406 316.644531 52.078125 317.457031 51.90625 318.261719 C 51.734375 319.066406 51.5 319.851562 51.210938 320.621094 C 50.921875 321.390625 50.574219 322.132812 50.171875 322.851562 L 34.136719 351.589844 C 29.691406 359.558594 36.933594 368.980469 45.777344 366.726562 L 100.09375 352.898438 C 101.988281 352.417969 103.910156 352.277344 105.851562 352.476562 C 107.796875 352.675781 109.648438 353.203125 111.40625 354.058594 C 123.417969 359.894531 135.914062 364.378906 148.894531 367.511719 C 161.875 370.644531 175.039062 372.355469 188.390625 372.640625 C 292.816406 375.003906 378.527344 291.5625 378.855469 187.109375 C 379.175781 83.800781 295.351562 -0.0078125 192.039062 0.339844 Z M 192.679688 349.75 C 190.007812 349.75 187.339844 349.683594 184.671875 349.550781 C 182.003906 349.421875 179.339844 349.226562 176.679688 348.964844 C 174.023438 348.703125 171.371094 348.375 168.730469 347.980469 C 166.085938 347.589844 163.457031 347.132812 160.835938 346.613281 C 158.214844 346.089844 155.609375 345.507812 153.019531 344.859375 C 150.425781 344.207031 147.851562 343.496094 145.296875 342.71875 C 142.742188 341.945312 140.203125 341.109375 137.691406 340.207031 C 135.175781 339.308594 132.683594 338.347656 130.214844 337.324219 C 127.746094 336.300781 125.304688 335.21875 122.890625 334.078125 C 120.476562 332.933594 118.089844 331.734375 115.734375 330.476562 C 113.378906 329.214844 111.054688 327.898438 108.761719 326.527344 C 106.472656 325.152344 104.214844 323.722656 101.992188 322.238281 C 99.773438 320.757812 97.589844 319.21875 95.441406 317.625 C 93.296875 316.035156 91.191406 314.390625 89.125 312.699219 C 87.0625 311.003906 85.039062 309.257812 83.058594 307.464844 C 81.082031 305.671875 79.148438 303.828125 77.257812 301.941406 C 75.367188 300.050781 73.527344 298.117188 71.734375 296.136719 C 69.9375 294.15625 68.195312 292.136719 66.5 290.070312 C 64.804688 288.003906 63.160156 285.898438 61.570312 283.753906 C 59.980469 281.609375 58.441406 279.425781 56.957031 277.203125 C 55.472656 274.984375 54.042969 272.726562 52.671875 270.433594 C 51.296875 268.144531 49.980469 265.820312 48.722656 263.464844 C 47.460938 261.109375 46.261719 258.722656 45.121094 256.308594 C 43.976562 253.890625 42.894531 251.449219 41.871094 248.984375 C 40.851562 246.515625 39.890625 244.023438 38.988281 241.507812 C 38.089844 238.992188 37.25 236.457031 36.476562 233.898438 C 35.699219 231.34375 34.988281 228.769531 34.339844 226.179688 C 33.691406 223.585938 33.105469 220.980469 32.582031 218.359375 C 32.0625 215.742188 31.605469 213.109375 31.214844 210.464844 C 30.820312 207.824219 30.496094 205.171875 30.234375 202.515625 C 29.972656 199.855469 29.773438 197.191406 29.644531 194.523438 C 29.511719 191.855469 29.445312 189.1875 29.445312 186.515625 C 29.445312 96.363281 102.53125 23.28125 192.679688 23.28125 C 282.484375 23.28125 355.347656 95.796875 355.910156 185.464844 C 356.480469 275.4375 282.65625 349.75 192.679688 349.75 Z M 192.679688 349.75 " fill-opacity="1" fill-rule="nonzero"/><path fill="#00bf63" d="M 163.507812 107.15625 L 163.582031 107.304688 L 173.316406 126.613281 C 173.839844 127.652344 174.277344 128.726562 174.628906 129.835938 C 174.980469 130.945312 175.238281 132.074219 175.40625 133.226562 C 175.574219 134.375 175.648438 135.53125 175.628906 136.695312 C 175.609375 137.859375 175.5 139.011719 175.292969 140.15625 C 175.089844 141.300781 174.792969 142.421875 174.410156 143.519531 C 174.023438 144.617188 173.550781 145.675781 172.996094 146.695312 C 172.4375 147.71875 171.804688 148.6875 171.089844 149.605469 C 170.378906 150.527344 169.59375 151.382812 168.742188 152.171875 C 167.894531 152.960938 167.117188 153.808594 166.40625 154.722656 C 165.695312 155.632812 165.0625 156.59375 164.503906 157.609375 C 163.949219 158.621094 163.476562 159.671875 163.089844 160.761719 C 162.703125 161.851562 162.40625 162.964844 162.195312 164.101562 C 161.988281 165.242188 161.871094 166.386719 161.847656 167.542969 C 161.824219 168.699219 161.890625 169.847656 162.054688 170.992188 C 162.214844 172.140625 162.464844 173.261719 162.808594 174.367188 C 163.148438 175.472656 163.578125 176.542969 164.089844 177.578125 C 169.933594 189.316406 180.058594 205.492188 195.511719 217.164062 C 196.375 217.816406 197.277344 218.402344 198.226562 218.921875 C 199.175781 219.441406 200.15625 219.886719 201.171875 220.257812 C 202.1875 220.628906 203.226562 220.921875 204.285156 221.136719 C 205.34375 221.355469 206.414062 221.492188 207.492188 221.546875 C 208.574219 221.605469 209.652344 221.578125 210.726562 221.476562 C 211.804688 221.371094 212.863281 221.1875 213.914062 220.921875 C 214.960938 220.660156 215.984375 220.320312 216.984375 219.902344 C 217.980469 219.484375 218.941406 218.996094 219.867188 218.4375 L 226.136719 214.621094 C 227.542969 213.765625 229.027344 213.078125 230.589844 212.5625 C 232.152344 212.046875 233.753906 211.710938 235.390625 211.5625 C 237.03125 211.410156 238.664062 211.445312 240.296875 211.667969 C 241.925781 211.890625 243.511719 212.292969 245.050781 212.878906 L 269.972656 222.355469 C 270.632812 222.605469 271.28125 222.890625 271.917969 223.203125 C 272.550781 223.519531 273.167969 223.867188 273.765625 224.242188 C 274.367188 224.617188 274.949219 225.023438 275.507812 225.453125 C 276.070312 225.886719 276.605469 226.347656 277.121094 226.832031 C 277.636719 227.320312 278.125 227.828125 278.59375 228.363281 C 279.058594 228.894531 279.496094 229.453125 279.90625 230.027344 C 280.316406 230.605469 280.695312 231.203125 281.050781 231.816406 C 281.402344 232.429688 281.722656 233.058594 282.011719 233.707031 C 282.300781 234.351562 282.558594 235.011719 282.785156 235.683594 C 283.011719 236.355469 283.203125 237.035156 283.363281 237.722656 C 283.519531 238.414062 283.644531 239.109375 283.734375 239.8125 C 283.824219 240.515625 283.878906 241.222656 283.902344 241.929688 C 283.921875 242.636719 283.90625 243.34375 283.859375 244.050781 C 283.808594 244.757812 283.726562 245.457031 283.609375 246.15625 C 283.492188 246.855469 283.339844 247.546875 283.152344 248.230469 C 282.96875 248.914062 282.75 249.585938 282.5 250.246094 C 282.207031 251.007812 281.875 251.75 281.503906 252.476562 L 274.597656 265.859375 C 274.039062 266.945312 273.390625 267.972656 272.660156 268.945312 C 271.925781 269.917969 271.117188 270.824219 270.230469 271.660156 C 269.34375 272.496094 268.394531 273.253906 267.382812 273.929688 C 266.367188 274.605469 265.304688 275.191406 264.191406 275.6875 C 263.082031 276.183594 261.933594 276.585938 260.753906 276.886719 C 259.574219 277.191406 258.375 277.394531 257.164062 277.492188 C 255.949219 277.59375 254.734375 277.59375 253.519531 277.488281 C 252.304688 277.382812 251.109375 277.179688 249.929688 276.871094 C 210.789062 266.746094 117.507812 231.546875 109.992188 125.105469 C 109.917969 124.054688 109.921875 123.007812 110 121.957031 C 110.078125 120.90625 110.234375 119.867188 110.464844 118.839844 C 110.695312 117.8125 111 116.804688 111.375 115.824219 C 111.753906 114.839844 112.203125 113.890625 112.71875 112.972656 C 113.234375 112.054688 113.816406 111.175781 114.460938 110.34375 C 115.101562 109.511719 115.804688 108.730469 116.5625 108 C 117.320312 107.269531 118.128906 106.597656 118.988281 105.984375 C 119.84375 105.371094 120.738281 104.824219 121.675781 104.34375 L 134.386719 97.8125 C 135.015625 97.488281 135.660156 97.195312 136.320312 96.9375 C 136.976562 96.675781 137.648438 96.449219 138.328125 96.253906 C 139.011719 96.058594 139.699219 95.898438 140.394531 95.769531 C 141.09375 95.644531 141.792969 95.550781 142.5 95.492188 C 143.207031 95.433594 143.914062 95.410156 144.621094 95.421875 C 145.328125 95.433594 146.035156 95.480469 146.738281 95.558594 C 147.441406 95.640625 148.140625 95.753906 148.832031 95.90625 C 149.523438 96.054688 150.207031 96.238281 150.882812 96.453125 C 151.554688 96.667969 152.21875 96.917969 152.867188 97.199219 C 153.519531 97.480469 154.152344 97.792969 154.773438 98.136719 C 155.390625 98.480469 155.992188 98.855469 156.574219 99.257812 C 157.15625 99.660156 157.71875 100.089844 158.257812 100.550781 C 158.800781 101.007812 159.316406 101.492188 159.808594 102 C 160.300781 102.507812 160.769531 103.039062 161.207031 103.59375 C 161.648438 104.148438 162.0625 104.722656 162.445312 105.320312 C 162.828125 105.914062 163.183594 106.527344 163.507812 107.15625 Z M 163.507812 107.15625 " fill-opacity="1" fill-rule="nonzero"/></svg>